<?xml version="1.0" encoding="UTF-8"?>
<!DOCTYPE svg PUBLIC "-//W3C//DTD SVG 1.1//EN" "http://www.w3.org/Graphics/SVG/1.1/DTD/svg11.dtd">
<!-- Creator: CorelDRAW 2020 (64-Bit) -->
<svg xmlns="http://www.w3.org/2000/svg" xml:space="preserve" width="102.34mm" height="60.7003mm" version="1.1" style="shape-rendering:geometricPrecision; text-rendering:geometricPrecision; image-rendering:optimizeQuality; fill-rule:evenodd; clip-rule:evenodd"
viewBox="0 0 49366.59 29280.45"
 xmlns:xlink="http://www.w3.org/1999/xlink"
 xmlns:xodm="http://www.corel.com/coreldraw/odm/2003">
 <defs>
  <style type="text/css">
   <![CDATA[
    .fil3 {fill:#FE064C}
    .fil1 {fill:#FEFEFE}
    .fil2 {fill:#FF0047}
    .fil0 {fill:#FF024A}
    .fil4 {fill:#FF7D9C}
   ]]>
  </style>
 </defs>
 <g id="Слой_x0020_1">
  <metadata id="CorelCorpID_0Corel-Layer"/>
  <g id="_1075947632">
   <path class="fil0" d="M16870.81 23494.62c541.95,362.84 878.17,696.41 1522.48,1030.12 4057.61,2101.67 7353.46,-2902.03 8347.49,-2902.03 2576.18,0 2240.69,4523.35 8508.6,3063.1l0 2212.23 -18378.57 0 0 -3403.41zm4084.14 -340.37c-1195.72,0 -1596.81,4.39 -2826.54,-917.24 -1730.82,-1297.11 -1257.61,-2178.9 -1257.61,-5379.13l18378.57 0 0 5275.33c0,806.87 -2527.71,2190.52 -5318.64,-637.37 -2123.14,-2151.21 -3301.97,-2582.6 -5953.74,-84.32 -517.69,487.73 -2174.27,1742.73 -3022.05,1742.73zm6806.87 -9699.79c184.99,-794.09 397.09,-1006.19 1191.18,-1191.18 -181.08,678.17 -481.41,1025.82 -1191.18,1191.18zm-5445.51 -2722.73c684.83,0 1874.71,599.16 2258.68,974.55 592.6,579.34 764.04,1354.9 974.6,2258.68 -3308.87,-275.34 -3944.11,-3233.23 -3233.28,-3233.23zm-15338.54 -8925.72c4323.21,-1043.77 7464.74,1803.71 8343.63,5002.64 1120.66,4079.13 -2069.59,7460.06 -5097.57,8178.18 -8877.09,2105.38 -12186.59,-11022.27 -3246.06,-13180.81zm13466.67 8585.35c0,3094.45 1561.94,3613.44 2786.02,4531.4 436.31,327.2 -21.95,-26.48 277.08,233.42 -1588.28,0 -3176.55,0 -4764.83,0 -1690.83,-0.05 -3743.78,-464.96 -3743.78,1191.18l0 11061.15 -9869.97 0c0,-2128.3 388.55,-3990.95 897.32,-5909.56 195.89,-738.91 545.86,-1642.01 824.09,-2409.14l1001.32 -2231.96c1700.86,0 2667.64,-45.2 3884.25,-540.26l1465.03 -747.15c469.5,-319.72 942.9,-674.65 1334.26,-1048.16 1956.28,-1867.14 2675.94,-3870.98 2675.94,-6513.35 2637.11,-1395.37 6328.79,-1531.55 9529.6,-1531.55 3422.8,0 6296.28,877.35 8705.46,1845.19 3662.88,1471.54 6980,4736.46 8846.75,8170.41l1983.58 4653.16c538,1910.99 698.48,2440.64 959.93,4315.88 201.97,1448.53 410.41,1946.49 -245.29,1946.49l-9869.97 0 0 -7827.87c0.1,-5460.56 1306.13,-4424.46 -8848.92,-4424.46l185.47 -154.84c612.43,-469.93 1359.92,-879.18 1744.57,-1659.33 502.3,-1018.64 362.07,-1877.41 112.06,-2950.65 -2679.08,0 -3056.1,1282.59 -3743.78,1531.55 -1448.43,-2737.35 -3579.72,-2722.73 -5956.06,-2722.73 -17.46,785.74 -170.13,570.36 -170.13,1191.18zm6296.33 -8848.92l0 510.5 -340.32 0c111.67,-466.46 -69.08,-265.02 340.32,-510.5zm-26716.95 5615.64c0,2281.6 -237.57,2896.92 788.59,4997.28 797.76,1632.94 3196.28,4042.13 4997.24,4192 -22.19,997.36 -5225.69,12933.07 -850.87,12933.07l42372.79 0c3388.27,0 1664.2,-4741.53 1038.22,-7504.73 -133.76,-590.43 -177.32,-606.78 -314.99,-1046.42 -700.51,-2237.89 -1383.55,-3821.1 -2625.29,-5883.27 -1474.53,-2448.84 -3209.35,-4278.69 -5439.24,-5962.28 -2924.75,-2208.18 -7648.72,-4001.03 -11389.75,-4095.87 -1078.98,-27.35 -1008.89,49.06 -1008.89,-1203.39 0,-539.44 1018.78,-935.81 761.14,-2111.7 -439.93,-2007.94 -3483.87,-2150.63 -3483.87,750.34 0,1134.36 850.87,-265.98 850.87,2382.41 -1637.38,0 -3089.77,172.26 -4586.06,348.95 -4295.76,507.17 -3748.36,2118.02 -4637.77,25.9 -1084.43,-2550.81 -4058.19,-4969.5 -6772.34,-4969.5 -2914.96,0 -4766.23,-101.25 -7190.7,2338.95 -756.85,761.77 -1023.12,990.27 -1548.72,2024.83 -328.74,647.06 -960.36,1954.3 -960.36,2783.41z"/>
   <path class="fil1" d="M5900.97 10015.12c365.93,330.81 1381.38,119.87 1959.66,209.83l29.33 847.1c-629.65,358.94 -2911.44,302.69 -3693.42,70.72 -143.8,-830.61 -123.2,-566.55 250.88,-875.08 309.4,-719.8 2752.59,-2215.46 1872.73,-3654.2 -647.5,-382.67 -490.48,-203.03 -958.24,86.2 -503.07,310.99 225.61,592.75 -1011.21,196.67 -122.04,-1624.16 2645.26,-1920.63 3134.2,-534.81 554.78,1572.6 -1062.63,2952.49 -1583.93,3653.57zm2672.37 -183.4c-111.43,-1040.05 598.44,-1767.58 1087.09,-2572.95 1114.44,-1836.8 638.09,-1735.3 2007.12,-1693.39 -290.78,1315.01 -1439.17,1989.03 -1691.17,3371.33l938.42 -33.86 252.67 -1348.58 900.16 -1.25 51.13 1136.63c33.86,29.81 93.44,48.72 118.95,64.45l425.84 298.35c95.12,120.16 210.36,64.2 121.37,442.63 -260.15,1106.62 -525.16,-724 -750.34,1659.86 -1276.03,67.24 -832.05,-110.42 -969.14,-1257.75l-2492.11 -65.46zm-1595.56 -8025.7c-8940.53,2158.54 -5631.03,15286.2 3246.06,13180.81 3027.98,-718.12 6218.23,-4099.05 5097.57,-8178.18 -878.89,-3198.93 -4020.42,-6046.41 -8343.63,-5002.64z"/>
   <path class="fil2" d="M45119.35 23834.94c1105.46,-740.26 981.44,-723.52 322.23,-2874.82 -1249.55,-4077.92 -3257.4,-6920.96 -6589.32,-9406.79 -465.93,-347.6 -1194.22,-762.78 -1901.15,-821.58 -2902.08,2522.45 4121.43,791.34 6925.64,11452.89 260.15,989.07 267.24,1423.06 1242.6,1650.31z"/>
   <path class="fil3" d="M8573.34 9831.72l2492.11 65.46c137.09,1147.33 -306.89,1324.99 969.14,1257.75 225.17,-2383.86 490.19,-553.24 750.34,-1659.86 89,-378.42 -26.24,-322.47 -121.37,-442.63l-425.84 -298.35c-25.52,-15.73 -85.09,-34.63 -118.95,-64.45l-51.13 -1136.63 -900.16 1.25 -252.67 1348.58 -938.42 33.86c251.99,-1382.3 1400.39,-2056.33 1691.17,-3371.33 -1369.03,-41.92 -892.69,-143.41 -2007.12,1693.39 -488.65,805.38 -1198.51,1532.9 -1087.09,2572.95z"/>
   <path class="fil0" d="M4447.42 10267.69l-35.7 764.95c659.89,86.78 2755.34,217.6 3352.57,-130.77 -215.24,-951.1 267.19,-318.08 -2137.51,-513.68 -9.79,-759.17 -54.56,-71.01 274.18,-373.07 521.31,-701.09 2138.72,-2080.98 1583.93,-3653.57 -488.94,-1385.82 -3256.24,-1089.35 -3134.2,534.81 1236.82,396.08 508.14,114.32 1011.21,-196.67 467.76,-289.23 310.75,-468.87 958.24,-86.2 879.86,1438.74 -1563.34,2934.4 -1872.73,3654.2z"/>
   <path class="fil3" d="M33717.83 10051.05c0,1096.78 2042.05,1636.42 2042.05,-170.18 0,-1127.65 -2042.05,-1165.13 -2042.05,170.18z"/>
   <path class="fil4" d="M4447.42 10267.69c-374.08,308.53 -394.68,44.48 -250.88,875.08 781.98,231.98 3063.77,288.22 3693.42,-70.72l-29.33 -847.1c-578.27,-89.96 -1593.73,120.98 -1959.66,-209.83 -328.74,302.06 -283.98,-386.09 -274.18,373.07 2404.7,195.6 1922.27,-437.42 2137.51,513.68 -597.23,348.37 -2692.68,217.55 -3352.57,130.77l35.7 -764.95z"/>
  </g>
 </g>
</svg>
