<?xml version="1.0" encoding="UTF-8"?>
<!DOCTYPE svg PUBLIC "-//W3C//DTD SVG 1.1//EN" "http://www.w3.org/Graphics/SVG/1.1/DTD/svg11.dtd">
<!-- Creator: CorelDRAW 2020 (64-Bit) -->
<svg xmlns="http://www.w3.org/2000/svg" xml:space="preserve" width="103.141mm" height="100.189mm" version="1.1" style="shape-rendering:geometricPrecision; text-rendering:geometricPrecision; image-rendering:optimizeQuality; fill-rule:evenodd; clip-rule:evenodd"
viewBox="0 0 9334.26 9067.08"
 xmlns:xlink="http://www.w3.org/1999/xlink"
 xmlns:xodm="http://www.corel.com/coreldraw/odm/2003">
 <defs>
  <style type="text/css">
   <![CDATA[
    .fil0 {fill:#F50049}
   ]]>
  </style>
 </defs>
 <g id="Слой_x0020_1">
  <metadata id="CorelCorpID_0Corel-Layer"/>
  <g id="_1075939760">
   <path class="fil0" d="M4150.42 2458.33l1021.64 0 0 6161.78 -1021.64 0 0 -6161.78zm1436.68 1724.01l2586.03 0 0 4341.99c0,73.56 -22.22,95.78 -95.78,95.78l-2490.26 0 0 -3416.12 830.09 0c208.6,0 283.84,-415.04 -63.86,-415.04l-766.24 0 0 -606.6zm-2745.66 1021.64l893.94 0 0 3416.12 -2490.26 0c-73.56,0 -95.78,-22.22 -95.78,-95.78l0 -4341.99 2586.03 0 0 606.6 -830.09 0c-355.85,0 -269.67,415.04 -63.85,415.04zm6034.07 -1436.69l-3288.41 0 0 -1308.97 3192.64 0c74.73,0 127.7,52.97 127.7,127.7 0,193.98 26.72,1050.03 -31.93,1181.27zm-8460.47 -159.62l0 -1021.64c0,-74.73 52.98,-127.7 127.7,-127.7l3192.64 0 0 1308.97 -3288.41 0c-16.68,-71.59 -31.93,-73.4 -31.93,-159.62zm4469.68 -1564.39c101.69,-436.49 245.03,-778.1 610.48,-1049.7 168.78,-125.43 872.38,-546.62 1113.55,-546.62l159.63 0c324.84,0 670.45,339.28 670.45,670.45 0,304.95 -25.37,485.86 -279.12,710.6 -151.51,134.18 -338.52,214.36 -613.44,216.64 -552.53,4.58 -1108.54,-1.37 -1661.54,-1.37zm-3001.07 -766.24l0 -159.63c0,-331.17 345.61,-670.45 670.45,-670.45 343.91,0 425.76,41.76 752.75,236.96 631.21,376.84 926.28,481.08 1130.9,1359.35 -553,0 -1109.01,5.95 -1661.54,1.37 -500.51,-4.14 -892.56,-363.62 -892.56,-767.6zm-446.97 -95.78c0,379.75 167.03,634.66 319.27,862.01 -369.6,0 -1333.05,-60.95 -1538.95,89.3 -90.91,66.33 -217,211.58 -217,357.67l0 1213.2c0,501.08 465.28,478.89 734.31,478.89l0 4405.83c0,307.95 260.21,478.9 574.67,478.9l6704.52 0c314.47,0 574.67,-170.95 574.67,-478.9l0 -4405.83c898.56,0 734.31,-285.28 734.31,-1692.09 0,-334.32 -347.97,-449.68 -637.74,-447.76 -372.7,2.47 -745.48,0.79 -1118.21,0.79 834.8,-1246.65 -189.54,-2043.29 -893.93,-2043.29 -238.66,0 -446.95,95.61 -617.41,180.76l-792.25 452.87c-187.12,148.32 -506.76,439.38 -569.77,675.36l-63.86 0c-79.69,-298.49 -510.79,-654.66 -807.99,-820.25 -176.12,-98.14 -330.79,-196.54 -511.24,-286.91 -532.71,-266.8 -1048.86,-292.14 -1499.12,140.54 -221.91,213.25 -374.27,508.88 -374.27,838.92z"/>
   <path class="fil0" d="M1660.17 4980.51c0,308.91 446.97,290.96 446.97,31.93 0,-345.79 -446.97,-242.69 -446.97,-31.93z"/>
   <path class="fil0" d="M7151.49 4980.51c0,415.3 646.97,190.24 399.78,-112.44 -128.36,-157.17 -399.78,-63.38 -399.78,112.44z"/>
  </g>
 </g>
</svg>
