<?xml version="1.0" encoding="UTF-8"?>
<!DOCTYPE svg PUBLIC "-//W3C//DTD SVG 1.1//EN" "http://www.w3.org/Graphics/SVG/1.1/DTD/svg11.dtd">
<!-- Creator: CorelDRAW 2020 (64-Bit) -->
<svg xmlns="http://www.w3.org/2000/svg" xml:space="preserve" width="105.204mm" height="105.283mm" version="1.1" style="shape-rendering:geometricPrecision; text-rendering:geometricPrecision; image-rendering:optimizeQuality; fill-rule:evenodd; clip-rule:evenodd"
viewBox="0 0 9075.92 9082.73"
 xmlns:xlink="http://www.w3.org/1999/xlink"
 xmlns:xodm="http://www.corel.com/coreldraw/odm/2003">
 <defs>
  <style type="text/css">
   <![CDATA[
    .fil0 {fill:#F50049}
   ]]>
  </style>
 </defs>
 <g id="Слой_x0020_1">
  <metadata id="CorelCorpID_0Corel-Layer"/>
  <g id="_1084760192">
   <path class="fil0" d="M365.21 4632.66c-22.9,-118.33 63.43,-774.15 98.49,-936.26 168.21,-777.4 535.54,-1485.36 1080.18,-2054.52 303.69,-317.36 656.01,-542.03 1029.98,-765.62 1018.72,-609.06 2525.8,-636.62 3593.86,-159.22 843.9,377.21 1470.16,917.56 1944.97,1707.11 73.29,121.87 126.31,196.56 183.02,334.36 633.5,1539.36 537.87,3037.58 -517.05,4387.73 -638.56,817.29 -1624.17,1359.77 -2660.23,1509.23 -136.86,19.74 -367.74,29.91 -501.83,48.06 -401.65,54.37 -1308.36,-156.1 -1715.01,-337.87 -980.37,-438.22 -1497.64,-969.71 -2032.03,-1863.52 -159.21,-266.3 -283.11,-622.36 -364.82,-943.84 -41.06,-161.55 -58.9,-257.71 -84.21,-433.18 -38.2,-264.83 -2.79,-220.91 -55.33,-492.48zm-365.21 -365.21c0,873.13 32.83,1441.8 436.16,2242.03 128.02,254.01 230.92,453.44 393.91,671.28 347.95,465.05 600.9,717.81 1065.19,1065.19 217.84,162.99 417.27,265.88 671.28,393.91 1171.54,590.48 2764.7,590.48 3936.24,0 763.31,-384.72 1232.55,-785.58 1736.47,-1459.1 162.99,-217.84 265.88,-417.27 393.91,-671.28 715.67,-1419.91 549.15,-3347.09 -393.91,-4607.52 -501.21,-669.88 -978.48,-1077.06 -1736.47,-1459.1 -1171.54,-590.48 -2764.7,-590.48 -3936.24,0 -988.29,498.11 -1632.26,1142.09 -2130.38,2130.38 -199.43,395.68 -436.16,1117.33 -436.16,1694.21z"/>
   <path class="fil0" d="M4717.27 6884.78c0,-756.94 380.57,-1095.62 1095.62,-1095.62 0,510.09 -191.25,872.11 -634.75,1008.68 -148.55,45.75 -301.84,49.89 -460.87,86.94zm-1460.83 -1095.62c736.51,0 1095.62,348.18 1095.62,1095.62 -102.98,-49.42 -541.26,-10.62 -812.34,-283.28 -155.6,-156.49 -283.27,-508.93 -283.27,-812.34zm1460.83 -852.15c0,-316.26 118.78,-653.28 280.45,-815.17 178.65,-178.88 494.72,-253.79 815.16,-280.45 0,327.49 -112.5,644.89 -280.47,815.15 -213.49,216.4 -479.46,280.47 -815.14,280.47zm-1460.83 -1095.62c330.77,27.53 624.53,101.57 815.38,280.24 175.2,164.02 280.24,481.65 280.24,815.39 -351.37,0 -612.74,-60.76 -845.5,-310.98 -140.07,-150.58 -250.11,-502.84 -250.11,-784.64zm1308.66 -426.08c-515.21,-345 -515.21,-1207.13 0,-1552.13 51.36,192.37 696.86,636.39 126.32,1374.12 -69.02,89.23 -94.95,60.49 -126.32,178.01zm-760.86 -913.02c0,1039.25 547.81,987.16 547.81,1369.53 -409.8,-274.42 -575.02,-395.64 -1217.36,-395.64 -492.12,0 -164.65,1093.55 113.64,1408.07 213.64,241.44 655.84,417.97 1103.72,417.97l0 486.95c-250.31,-132.46 -435.18,-365.21 -973.88,-365.21 -363.81,0 -486.95,-58.05 -486.95,273.91 0,441.84 125.42,857.29 341.84,1088.56 139.84,149.43 221.8,217.45 426.91,303.51 227.7,95.53 420.47,129.63 692.08,129.63 0,185.76 -32.87,978.54 30.74,1095.32 20.09,36.9 9.9,18.57 40.83,50.48l32.97 27.9c3.32,2.87 11.74,8.48 17.19,13.23 142.11,-11.83 243.48,-56.89 243.48,-213.03l0 -973.89c959.32,0 1460.83,-537.28 1460.83,-1552.13 0,-78.07 -35.52,-160.2 -60.87,-213.04 -399.4,-93.05 -859.17,7.45 -1197.55,202.41 -104.99,60.49 -111.51,101.94 -202.41,162.8l0 -517.38c1003.79,0 1460.83,-594.25 1460.83,-1582.56 0,-275.93 -218.03,-213.03 -547.81,-213.03 -370.07,0 -642.5,184.06 -913.02,365.21 0,-262 72.11,-131.52 329.52,-522.63 621.86,-944.88 -257.83,-1912.09 -542.56,-1912.09 -154.67,0 -699.98,679.21 -699.98,1065.19z"/>
   <path class="fil0" d="M4352.05 1102.33c796.59,0 1504.48,230.4 1978.59,547.43 504.38,337.28 960.53,766.84 1247.42,1309.04 81.11,-54.32 232.94,-158.88 334.78,-182.61 -43.51,-162.93 -459.53,-687.63 -585.25,-814.7 -761.11,-769.29 -1728.86,-1254.8 -2975.53,-1254.8l0 395.64z"/>
   <path class="fil0" d="M7638.93 3141.4c8.11,97.46 157.24,425.48 213.4,638.76 126.13,478.94 121.37,562.19 121.37,1035.11l395.64 0c0,-611.15 -36.22,-880.59 -231.49,-1442.38 -51.33,-147.67 -97.54,-197.94 -133.72,-353.23 -180.91,15.05 -184.3,106.68 -365.21,121.74z"/>
  </g>
 </g>
</svg>
